<svg xmlns="http://www.w3.org/2000/svg" xmlns:xlink="http://www.w3.org/1999/xlink" width="2000" zoomAndPan="magnify" viewBox="0 0 1500 1499.999933" height="2000" preserveAspectRatio="xMidYMid meet" version="1.0"><defs><g/><clipPath id="3bd453fdff"><rect x="0" width="324" y="0" height="541"/></clipPath></defs><g transform="matrix(1, 0, 0, 1, 586, 407)"><g clip-path="url(#3bd453fdff)"><g fill="#407f6c" fill-opacity="1"><g transform="translate(1.23282, 431.02304)"><g><path d="M 18.1875 0 L 18.1875 -321.015625 L 140.8125 -321.015625 C 160.789062 -321.015625 179.625 -318.410156 197.3125 -313.203125 C 215.007812 -307.992188 231.132812 -300.570312 245.6875 -290.9375 C 260.238281 -281.3125 272.789062 -269.828125 283.34375 -256.484375 C 293.90625 -243.148438 302.035156 -228.382812 307.734375 -212.1875 C 313.441406 -196 316.296875 -178.769531 316.296875 -160.5 C 316.296875 -142.238281 313.441406 -125.007812 307.734375 -108.8125 C 302.035156 -92.625 293.90625 -77.859375 283.34375 -64.515625 C 272.789062 -51.179688 260.238281 -39.695312 245.6875 -30.0625 C 231.132812 -20.4375 215.007812 -13.019531 197.3125 -7.8125 C 179.625 -2.601562 160.789062 0 140.8125 0 Z M 140.8125 -81.96875 C 154.226562 -81.96875 166.460938 -83.859375 177.515625 -87.640625 C 188.578125 -91.421875 198.171875 -96.84375 206.296875 -103.90625 C 214.429688 -110.96875 220.707031 -119.273438 225.125 -128.828125 C 229.550781 -138.390625 231.765625 -148.945312 231.765625 -160.5 C 231.765625 -172.0625 229.550781 -182.617188 225.125 -192.171875 C 220.707031 -201.734375 214.429688 -210.046875 206.296875 -217.109375 C 198.171875 -224.171875 188.578125 -229.59375 177.515625 -233.375 C 166.460938 -237.15625 154.226562 -239.046875 140.8125 -239.046875 L 102.078125 -239.046875 L 102.078125 -81.96875 Z M 140.8125 -81.96875 "/></g></g></g></g></g></svg>