<svg xmlns="http://www.w3.org/2000/svg" xmlns:xlink="http://www.w3.org/1999/xlink" width="2000" zoomAndPan="magnify" viewBox="0 0 1500 1499.999933" height="2000" preserveAspectRatio="xMidYMid meet" version="1.0"><defs><g/><clipPath id="4e4996da41"><rect x="0" width="865" y="0" height="325"/></clipPath></defs><g transform="matrix(1, 0, 0, 1, 317, 510)"><g clip-path="url(#4e4996da41)"><g fill="#407f6c" fill-opacity="1"><g transform="translate(0.432579, 258.993575)"><g><path d="M 10.953125 0 L 10.953125 -193.375 L 84.828125 -193.375 C 96.859375 -193.375 108.203125 -191.800781 118.859375 -188.65625 C 129.515625 -185.519531 139.222656 -181.050781 147.984375 -175.25 C 156.753906 -169.457031 164.316406 -162.539062 170.671875 -154.5 C 177.035156 -146.46875 181.9375 -137.570312 185.375 -127.8125 C 188.8125 -118.0625 190.53125 -107.6875 190.53125 -96.6875 C 190.53125 -85.6875 188.8125 -75.304688 185.375 -65.546875 C 181.9375 -55.796875 177.035156 -46.898438 170.671875 -38.859375 C 164.316406 -30.828125 156.753906 -23.910156 147.984375 -18.109375 C 139.222656 -12.304688 129.515625 -7.835938 118.859375 -4.703125 C 108.203125 -1.566406 96.859375 0 84.828125 0 Z M 84.828125 -49.375 C 92.898438 -49.375 100.265625 -50.507812 106.921875 -52.78125 C 113.585938 -55.0625 119.367188 -58.328125 124.265625 -62.578125 C 129.171875 -66.835938 132.953125 -71.847656 135.609375 -77.609375 C 138.273438 -83.367188 139.609375 -89.726562 139.609375 -96.6875 C 139.609375 -103.644531 138.273438 -110.003906 135.609375 -115.765625 C 132.953125 -121.523438 129.171875 -126.53125 124.265625 -130.78125 C 119.367188 -135.039062 113.585938 -138.304688 106.921875 -140.578125 C 100.265625 -142.859375 92.898438 -144 84.828125 -144 L 61.484375 -144 L 61.484375 -49.375 Z M 84.828125 -49.375 "/></g></g></g><g fill="#407f6c" fill-opacity="1"><g transform="translate(156.789238, 258.993575)"><g><path d="M 93.078125 4.125 C 80.785156 4.125 69.546875 2.128906 59.359375 -1.859375 C 49.179688 -5.859375 40.394531 -11.550781 33 -18.9375 C 25.613281 -26.332031 19.898438 -35.054688 15.859375 -45.109375 C 11.816406 -55.171875 9.796875 -66.257812 9.796875 -78.375 L 9.796875 -193.375 L 60.328125 -193.375 L 60.328125 -78.765625 C 60.328125 -72.316406 61.722656 -66.597656 64.515625 -61.609375 C 67.316406 -56.628906 71.226562 -52.742188 76.25 -49.953125 C 81.28125 -47.160156 87.0625 -45.765625 93.59375 -45.765625 C 100.125 -45.765625 105.859375 -47.160156 110.796875 -49.953125 C 115.742188 -52.742188 119.632812 -56.628906 122.46875 -61.609375 C 125.300781 -66.597656 126.71875 -72.316406 126.71875 -78.765625 L 126.71875 -193.375 L 175.96875 -193.375 L 175.96875 -78.375 C 175.96875 -66.257812 173.945312 -55.171875 169.90625 -45.109375 C 165.863281 -35.054688 160.171875 -26.332031 152.828125 -18.9375 C 145.484375 -11.550781 136.738281 -5.859375 126.59375 -1.859375 C 116.445312 2.128906 105.273438 4.125 93.078125 4.125 Z M 93.078125 4.125 "/></g></g></g><g fill="#407f6c" fill-opacity="1"><g transform="translate(290.586628, 258.993575)"><g><path d="M 2.328125 0 L 78.890625 -194.53125 L 130.84375 -194.53125 L 207.296875 0 L 153.921875 0 L 142.0625 -32.09375 L 64.96875 -32.09375 L 52.59375 0 Z M 79.796875 -70.78125 L 127.75 -70.78125 L 104.546875 -133.296875 L 103.78125 -133.296875 Z M 79.796875 -70.78125 "/></g></g></g><g fill="#407f6c" fill-opacity="1"><g transform="translate(452.227865, 258.993575)"><g><path d="M 10.953125 0 L 10.953125 -193.375 L 97.96875 -193.375 C 112.320312 -193.375 124.71875 -190.941406 135.15625 -186.078125 C 145.601562 -181.222656 153.679688 -174.390625 159.390625 -165.578125 C 165.109375 -156.773438 167.96875 -146.398438 167.96875 -134.453125 C 167.96875 -124.316406 165.945312 -115.398438 161.90625 -107.703125 C 157.875 -100.015625 152.179688 -93.847656 144.828125 -89.203125 C 137.484375 -84.566406 128.738281 -81.773438 118.59375 -80.828125 L 118.46875 -80.0625 C 123.96875 -78.769531 128.820312 -76.941406 133.03125 -74.578125 C 137.25 -72.210938 141.226562 -69.070312 144.96875 -65.15625 C 148.707031 -61.25 152.550781 -56.242188 156.5 -50.140625 L 189.5 0 L 130.59375 0 L 103.90625 -44.46875 C 100.382812 -50.40625 96.90625 -55.046875 93.46875 -58.390625 C 90.03125 -61.742188 86.160156 -64.085938 81.859375 -65.421875 C 77.566406 -66.753906 72.238281 -67.421875 65.875 -67.421875 L 61.484375 -67.421875 L 61.484375 0 Z M 93.328125 -107.515625 C 100.984375 -107.515625 106.9375 -109.210938 111.1875 -112.609375 C 115.4375 -116.003906 117.5625 -120.835938 117.5625 -127.109375 C 117.5625 -132.953125 115.347656 -137.570312 110.921875 -140.96875 C 106.503906 -144.363281 100.46875 -146.0625 92.8125 -146.0625 L 61.484375 -146.0625 L 61.484375 -107.515625 Z M 93.328125 -107.515625 "/></g></g></g><g fill="#407f6c" fill-opacity="1"><g transform="translate(592.212978, 258.993575)"><g><path d="M 56.328125 0 L 56.328125 -144.125 L 4.90625 -144.125 L 4.90625 -193.375 L 158.171875 -193.375 L 158.171875 -144.125 L 106.734375 -144.125 L 106.734375 0 Z M 56.328125 0 "/></g></g></g><g fill="#407f6c" fill-opacity="1"><g transform="translate(715.56975, 258.993575)"><g><path d="M 10.953125 0 L 10.953125 -193.375 L 141.546875 -193.375 L 141.546875 -149.40625 L 61.484375 -149.40625 L 61.484375 -116.921875 L 133.296875 -116.921875 L 133.296875 -77.734375 L 61.484375 -77.734375 L 61.484375 -43.953125 L 143.09375 -43.953125 L 143.09375 0 Z M 10.953125 0 "/></g></g></g></g></g></svg>