<svg xmlns="http://www.w3.org/2000/svg" width="1218" height="861" viewBox="0 0 1218 861">
<path d="M 375.10 520.27 C368.99,523.28 367.74,523.52 356.52,523.81 C344.52,524.12 344.49,524.11 337.20,520.57 C312.50,508.58 300.60,492.59 296.03,465.25 C295.36,461.26 294.64,458.00 294.42,458.00 C294.20,458.00 290.53,458.98 286.26,460.18 C280.91,461.68 275.54,462.38 269.00,462.43 C242.99,462.62 227.11,448.16 222.78,420.34 C222.15,416.30 221.16,413.01 220.57,413.01 C219.98,413.02 216.70,413.90 213.27,414.98 C204.00,417.89 192.54,419.07 184.57,417.94 C172.09,416.17 160.16,411.34 136.34,398.40 C104.47,381.09 88.57,373.29 81.00,371.27 C76.31,370.01 70.60,369.52 60.50,369.51 L 46.50 369.50 L 40.17 372.93 C33.20,376.71 28.14,382.17 24.97,389.33 C23.32,393.06 22.41,394.00 20.45,394.00 C17.21,394.00 17.24,391.44 20.53,384.93 C23.85,378.40 30.15,372.33 37.00,369.10 C42.27,366.61 43.24,366.50 60.00,366.50 C84.99,366.50 85.09,366.53 129.85,389.12 C167.67,408.21 179.30,413.01 187.80,412.99 C193.90,412.98 206.67,409.87 215.44,406.25 L 222.38 403.39 L 224.18 395.95 C225.17,391.85 227.77,384.90 229.95,380.50 C238.51,363.21 251.53,352.19 269.08,347.38 C277.31,345.13 294.93,345.07 303.99,347.27 C307.57,348.14 310.53,348.77 310.57,348.67 C310.62,348.58 312.38,343.55 314.48,337.50 C322.23,315.22 328.86,303.27 339.88,291.71 C358.45,272.23 375.76,263.86 394.54,265.28 C403.76,265.98 412.21,269.56 414.31,273.66 C417.27,279.42 418.32,287.14 417.02,293.42 C414.64,304.87 400.47,328.64 385.33,346.59 C359.57,377.11 344.47,394.58 337.82,401.54 L 330.13 409.58 L 328.84 418.54 C328.14,423.47 327.54,436.27 327.53,447.00 C327.49,472.39 328.80,478.96 337.27,496.00 C344.78,511.10 350.69,518.01 356.07,517.98 C362.42,517.94 368.05,514.35 378.50,503.65 C388.22,493.70 392.73,487.22 401.03,471.29 C404.06,465.48 404.19,464.80 403.13,460.60 C401.37,453.61 401.76,441.25 404.02,432.41 C408.12,416.37 414.81,406.17 424.44,401.27 C433.68,396.56 450.92,397.19 454.54,402.36 C456.75,405.52 456.32,409.37 452.81,417.80 C448.59,427.94 440.73,436.29 433.63,438.18 L 428.76 439.48 L 429.22 449.10 C429.72,459.48 432.09,466.35 436.01,468.78 C437.93,469.98 439.45,468.71 456.87,451.28 C475.31,432.86 475.94,432.08 490.22,410.48 L 504.77 388.46 L 505.45 375.48 C507.26,340.61 512.70,323.54 526.29,310.03 C534.09,302.28 540.58,299.08 551.12,297.81 C568.83,295.67 574.09,299.61 569.10,311.27 C567.17,315.76 547.31,345.73 539.33,356.17 L 535.00 361.85 L 535.03 372.17 C535.06,385.58 536.52,400.73 538.63,409.44 L 540.31 416.38 L 542.53 411.35 C545.61,404.36 550.85,399.42 557.17,397.54 C563.15,395.77 570.87,395.56 576.18,397.03 C585.94,399.74 595.05,409.78 599.07,422.25 C600.27,425.96 601.46,429.00 601.71,429.00 C601.96,429.00 610.15,421.45 619.91,412.22 C629.66,403.00 640.37,393.68 643.70,391.53 C649.10,388.03 649.94,387.03 651.44,382.29 C653.83,374.70 661.35,365.18 667.40,362.08 C677.21,357.06 689.35,358.32 705.88,366.06 C715.43,370.54 718.95,373.41 722.71,379.79 C724.10,382.15 725.52,383.95 725.87,383.78 C739.81,377.06 750.11,370.95 756.14,365.85 L 763.53 359.58 L 763.52 353.46 C763.50,348.27 763.96,346.67 766.50,343.00 C770.55,337.16 774.33,335.01 780.60,335.00 C785.84,335.00 789.00,336.93 789.00,340.13 C789.00,342.12 783.99,349.90 779.52,354.84 C776.18,358.54 776.04,358.95 777.72,359.85 C779.86,361.00 791.50,361.23 805.29,360.40 C822.19,359.37 823.27,360.74 813.93,371.37 C800.53,386.62 783.87,410.34 777.09,423.83 C769.79,438.34 766.79,448.88 766.24,462.00 C765.47,480.22 768.02,491.97 773.54,495.62 C775.30,496.78 776.16,496.67 779.91,494.82 C790.64,489.50 802.67,474.47 811.99,454.71 C816.08,446.04 817.13,442.64 817.95,435.43 C819.29,423.66 822.22,415.33 828.15,406.46 C834.08,397.59 839.23,392.97 848.25,388.40 C857.05,383.94 864.73,382.00 873.62,382.00 C886.37,382.00 900.00,387.94 900.00,393.49 C900.00,394.81 899.53,396.17 898.96,396.52 C898.39,396.88 893.38,395.97 887.82,394.50 C878.09,391.93 877.56,391.90 873.46,393.46 C867.62,395.69 859.57,404.47 855.86,412.66 C852.17,420.78 850.00,431.63 850.00,441.91 C850.00,452.48 851.98,458.60 857.00,463.50 C860.93,467.34 861.16,467.42 863.78,465.99 C865.80,464.88 868.55,460.34 874.50,448.31 C878.90,439.41 883.36,431.20 884.40,430.06 C886.98,427.27 891.54,427.37 893.41,430.25 C894.21,431.49 896.88,438.40 899.35,445.62 C904.90,461.90 906.71,465.42 912.17,470.65 C922.56,480.62 934.82,486.20 950.74,488.23 C973.39,491.11 989.13,484.35 1013.26,461.38 C1032.73,442.85 1043.99,435.34 1060.00,430.19 C1079.03,424.07 1093.27,424.66 1116.00,432.48 C1133.76,438.59 1140.13,439.36 1147.20,436.24 C1155.65,432.50 1171.43,415.59 1176.59,404.75 C1177.89,402.01 1178.99,401.00 1180.69,401.00 C1182.43,401.00 1182.99,401.56 1182.98,403.25 C1182.88,412.93 1162.24,437.80 1151.35,441.36 C1139.53,445.22 1133.29,444.52 1110.50,436.78 C1090.86,430.10 1081.92,429.40 1067.83,433.44 C1051.74,438.04 1042.99,443.79 1022.21,463.39 C998.19,486.05 983.42,492.96 959.00,492.97 C946.16,492.97 932.39,490.30 923.29,486.05 C909.26,479.48 899.14,470.18 895.41,460.40 L 893.71 455.94 L 890.95 460.72 C887.46,466.79 883.82,470.20 877.40,473.41 C870.21,477.00 863.06,478.30 853.10,477.81 C839.53,477.15 829.87,471.76 822.84,460.91 C821.09,458.21 819.35,456.00 818.96,456.00 C818.58,456.00 817.68,458.14 816.97,460.75 C812.30,477.94 799.13,493.00 780.26,502.71 C772.85,506.52 770.98,507.09 767.69,506.57 C751.38,503.96 740.11,484.83 742.93,464.54 C744.37,454.17 745.33,450.36 750.35,435.00 C759.49,407.01 769.43,387.77 781.96,373.80 L 787.07 368.10 L 782.79 367.02 C780.43,366.43 776.73,365.28 774.56,364.48 L 770.61 363.01 L 764.83 367.55 C759.65,371.62 743.86,381.90 731.61,389.18 C727.40,391.68 727.14,392.08 727.65,395.26 C729.99,409.66 710.98,439.01 690.91,451.98 C671.06,464.81 651.48,458.99 641.19,437.20 C637.77,429.97 637.55,428.92 637.62,420.00 C637.66,414.77 638.22,409.20 638.87,407.61 C639.52,406.02 639.83,404.50 639.55,404.22 C639.09,403.76 625.24,416.26 609.32,431.50 L 603.05 437.50 L 604.09 442.50 C605.89,451.21 605.71,467.81 603.76,474.14 C600.37,485.06 586.76,496.11 578.57,494.58 C572.31,493.41 567.25,484.66 568.30,476.84 C568.98,471.71 574.71,459.79 579.45,453.60 C580.75,451.91 581.66,450.74 582.18,449.41 C583.36,446.33 582.38,442.40 579.07,429.13 C575.89,416.41 574.38,412.66 570.33,407.25 C564.40,399.33 556.28,406.78 550.05,425.85 C546.55,436.55 546.37,439.62 548.64,450.00 C549.73,454.98 550.31,462.77 550.39,473.17 C550.49,487.52 550.33,489.06 548.44,491.60 C547.31,493.13 545.15,494.78 543.65,495.28 C534.90,498.20 526.83,488.52 522.01,469.36 C520.93,465.04 519.10,459.05 517.95,456.06 C515.62,449.99 508.35,420.01 507.37,412.40 C506.26,403.91 505.75,404.08 498.93,415.11 C489.67,430.10 483.22,437.74 466.12,454.00 C457.73,461.98 449.34,470.61 447.48,473.19 C445.01,476.60 443.06,478.17 440.29,478.94 C434.89,480.43 426.13,480.25 420.41,478.51 C413.73,476.48 413.43,476.54 411.90,480.25 C406.48,493.40 387.29,514.27 375.10,520.27 Z" fill="rgb(210,73,36)"/>
</svg>